<svg width="413" height="411" viewBox="0 0 413 411" fill="none" xmlns="http://www.w3.org/2000/svg">
<path d="M221.484 148.839C230.291 201.913 215.923 248.526 189.041 253.141C162.158 257.756 132.959 218.066 124.153 164.992C115.346 111.918 129.714 65.3054 156.597 60.6903C183.479 56.5366 212.678 95.7652 221.484 148.839Z" fill="#C67822"/>
<path d="M121.835 136.839C121.835 136.839 145.936 110.994 175.6 127.147C185.333 133.147 194.139 137.3 183.479 134.531C172.819 131.762 132.959 136.839 123.226 150.684C122.762 151.146 120.445 143.3 121.835 136.839Z" fill="#754C24"/>
<path d="M128.788 182.068C128.788 182.068 148.254 154.839 177.917 165.915C187.65 170.069 196.456 172.838 186.26 171.915C176.063 170.531 138.984 180.684 131.568 194.991C131.568 194.991 128.324 188.068 128.788 182.068Z" fill="#754C24"/>
<path d="M75.4863 236.528L56.0199 164.532L13.3793 132.227L3.18262 166.378L17.0872 218.068L75.4863 236.528Z" fill="#F4D6D8"/>
<path d="M123.759 146.026L55.7822 164.447L75.4994 236.588L143.476 218.167L123.759 146.026Z" fill="#D4145A"/>
<path d="M134.809 186.361L66.8325 204.775L75.4707 236.393L143.448 217.978L134.809 186.361Z" fill="#FF7BAC"/>
<path d="M13.3794 132.226L76.4134 115.15L123.689 146.072L56.02 164.532L13.3794 132.226Z" fill="#9E005D"/>
<path d="M71.4126 97.2458L8.35498 114.334L13.2234 132.147L76.281 115.058L71.4126 97.2458Z" fill="#D4145A"/>
<path d="M67.1436 204.682L9.20801 188.529L17.0873 218.066L75.4864 236.527L67.1436 204.682Z" fill="white"/>
<path d="M77.3401 129.918C81.0479 134.995 81.0479 141.918 76.4131 145.61C71.7782 148.84 65.2894 147.456 61.1181 141.918C57.4102 136.841 57.4102 129.918 62.045 126.226C66.6799 122.996 73.1687 124.38 77.3401 129.918Z" fill="black"/>
<path d="M81.0481 126.226C84.756 131.303 84.2925 137.764 80.1211 140.995C75.9497 144.225 69.461 142.841 65.2896 137.764C61.5817 132.687 62.0452 126.226 66.2166 122.996C70.8514 119.765 77.3402 121.15 81.0481 126.226Z" fill="white"/>
<path opacity="0.2" d="M13.3799 204.682L11.0625 195.913C11.0625 195.913 59.2649 219.912 89.855 211.143C120.908 202.836 136.667 193.605 136.667 193.605L139.448 204.22C139.448 204.682 67.1442 241.141 13.3799 204.682Z" fill="black"/>
<path d="M217.776 152.993C191.821 197.299 126.47 208.375 126.47 208.375C126.47 208.375 64.8262 231.451 19.8682 206.529C19.8682 206.529 -3.30607 194.991 0.401814 204.683L88.9275 435.9L181.624 410.979L275.712 385.596L234.462 141.917C232.144 131.302 217.776 152.993 217.776 152.993Z" fill="#B89562"/>
<path opacity="0.2" d="M162.622 196.837C162.622 196.837 148.253 146.533 124.616 149.302L139.911 204.683C139.447 204.683 148.253 203.76 162.622 196.837Z" fill="black"/>
<path d="M394.363 131.763C386.021 200.067 350.796 252.218 316.034 248.064C280.81 243.91 259.489 184.837 268.296 116.533C276.638 48.2292 311.863 -3.92175 346.625 0.231866C381.386 4.38548 402.706 63.4591 394.363 131.763Z" fill="#E0922E"/>
<path d="M275.711 80.5358C275.711 80.5358 315.107 57.4602 345.233 88.3815C354.967 99.4578 364.236 107.765 352.186 100.381C340.135 92.9966 289.152 84.6894 272.003 98.5348C271.539 98.5348 272.003 87.92 275.711 80.5358Z" fill="#754C24"/>
<path d="M267.832 138.686C267.832 138.686 301.666 112.38 334.11 136.378C344.77 145.609 354.504 151.608 341.99 146.532C329.475 141.455 280.81 140.532 265.978 155.3C266.442 155.762 265.051 146.07 267.832 138.686Z" fill="#754C24"/>
<path d="M182.551 186.221L184.868 90.226L144.081 35.7676L119.053 73.6116L117.199 142.838L182.551 186.221Z" fill="#F4D6D8"/>
<path d="M184.66 90.523L182.375 186.027L272.264 188.161L274.549 92.6561L184.66 90.523Z" fill="#D4145A"/>
<path d="M183.693 144.031L182.689 186.016L272.579 188.147L273.582 146.162L183.693 144.031Z" fill="#FF7BAC"/>
<path d="M144.081 35.7676L227.972 37.6136L274.784 92.5336L184.868 90.226L144.081 35.7676Z" fill="#9E005D"/>
<path d="M144.535 11.6863L143.958 35.6777L228.287 37.6867L228.864 13.6953L144.535 11.6863Z" fill="#D4145A"/>
<path d="M183.478 144.223L118.126 103.148L117.199 142.839L182.551 186.221L183.478 144.223Z" fill="white"/>
<path d="M223.8 55.6137C226.581 63.4594 223.8 71.7667 216.848 74.5357C209.896 76.8433 202.48 72.6897 199.236 64.844C196.455 56.9983 199.236 48.691 206.188 45.922C213.14 43.6144 220.556 47.768 223.8 55.6137Z" fill="black"/>
<path d="M229.826 52.8422C232.607 60.2264 229.826 68.5336 223.337 70.8412C216.848 73.1488 209.432 68.9952 206.651 61.1495C203.871 53.7653 206.651 45.458 213.14 43.1505C219.629 40.8429 227.045 44.9965 229.826 52.8422Z" fill="white"/>
<path opacity="0.2" d="M117.663 124.839L118.127 112.84C118.127 112.84 168.646 159.453 209.433 160.837C250.22 161.76 273.394 156.222 273.394 156.222L272.931 170.529C272.931 170.529 170.5 188.989 117.663 124.839Z" fill="black"/>
<path d="M387.875 135.454C339.672 180.221 254.855 170.068 254.855 170.068C254.855 170.068 170.964 176.067 124.615 128.993C124.615 128.993 100.514 106.379 101.441 119.763L125.079 436.36L248.366 439.129L373.507 441.898L412.44 127.147C413.83 114.225 387.875 135.454 387.875 135.454Z" fill="#E6BA7B"/>
<g clip-path="url(#clip0_922_4015)">
<path d="M181.995 288.312C182.218 286.077 182.776 283.954 183.891 281.83C185.341 278.925 187.572 276.466 190.026 274.678C190.249 274.455 190.696 274.455 191.03 274.566C191.476 274.79 191.699 275.349 191.476 275.796L191.253 276.019C189.915 277.137 188.799 278.59 187.907 280.266C187.572 280.936 187.349 281.607 187.126 282.278L187.015 282.613L187.238 282.501C190.026 281.607 192.369 279.595 193.819 276.801C194.823 274.678 195.269 272.555 194.934 270.32C194.934 270.096 194.934 269.984 195.046 269.761C195.269 269.314 195.827 269.202 196.273 269.314C196.384 269.426 196.496 269.537 196.607 269.649C198.281 273.337 198.281 277.695 196.384 281.607C194.488 285.295 191.253 287.865 187.461 288.759C187.238 288.759 187.015 288.871 186.792 288.983C186.568 289.095 186.345 289.318 186.122 289.653L186.234 289.877C186.122 290.1 186.122 290.324 186.122 290.436C186.122 290.436 186.122 290.995 186.345 291.442V291.665C186.345 292 186.122 292.224 185.788 292.224C185.676 292.224 185.565 292.224 185.453 292.112L182.553 289.989C182.33 289.765 182.218 289.542 182.107 289.206C181.995 289.095 181.995 288.424 181.995 288.312Z" fill="white"/>
<path d="M181.884 297.922C181.549 294.234 180.545 290.546 178.761 287.082C176.307 282.276 172.626 278.141 168.61 275.236C168.164 274.9 167.495 274.788 167.048 275.124C166.268 275.459 165.933 276.465 166.379 277.247C166.491 277.359 166.602 277.582 166.714 277.694C168.945 279.594 170.841 281.941 172.291 284.735C172.849 285.852 173.183 286.97 173.518 288.088L173.629 288.535L173.183 288.423C168.61 286.858 164.594 283.617 162.252 278.812C160.467 275.236 159.798 271.659 160.356 267.971C160.356 267.636 160.356 267.413 160.244 267.077C159.91 266.295 159.017 266.071 158.236 266.407C158.013 266.518 157.79 266.742 157.679 266.966C155.002 273 154.779 280.376 158.013 286.858C161.137 293.117 166.602 297.252 172.849 298.928C173.295 299.04 173.629 299.151 173.964 299.263C174.41 299.487 174.745 299.822 175.08 300.269L175.191 300.493C175.303 300.828 175.414 301.163 175.414 301.498C175.414 301.498 175.414 302.504 175.08 303.063C175.08 303.175 175.08 303.286 175.08 303.398C175.08 303.957 175.526 304.292 175.972 304.292C176.195 304.292 176.307 304.18 176.53 304.069L181.438 300.493C181.884 300.157 182.107 299.71 182.107 299.151C181.995 299.151 181.884 298.146 181.884 297.922Z" fill="white"/>
<path d="M171.287 260.819C171.064 258.584 170.506 256.46 169.391 254.337C167.941 251.431 165.71 248.972 163.256 247.184C163.033 246.961 162.586 246.961 162.252 247.073C161.806 247.296 161.583 247.855 161.806 248.302L162.029 248.525C163.367 249.643 164.483 251.096 165.375 252.772C165.71 253.443 165.933 254.113 166.156 254.784L166.267 255.007L166.044 254.896C163.256 254.002 160.913 251.99 159.463 249.196C158.459 247.073 158.013 244.949 158.348 242.714C158.348 242.491 158.348 242.379 158.236 242.155C158.013 241.708 157.455 241.597 157.009 241.708C156.898 241.82 156.786 241.932 156.675 242.044C155.001 245.732 155.001 250.09 156.898 254.002C158.794 257.689 162.029 260.26 165.821 261.154C166.044 261.154 166.267 261.266 166.49 261.377C166.714 261.489 166.937 261.713 167.16 262.048L167.271 262.16C167.383 262.383 167.383 262.607 167.383 262.719C167.383 262.719 167.383 263.277 167.16 263.724V263.948C167.16 264.283 167.383 264.507 167.717 264.507C167.829 264.507 167.941 264.507 168.052 264.395L170.952 262.272C171.175 262.048 171.287 261.824 171.398 261.489C171.287 261.489 171.287 260.93 171.287 260.819Z" fill="white"/>
<path d="M171.398 270.43C171.733 266.742 172.737 263.054 174.522 259.59C176.864 254.784 180.657 250.649 184.672 247.743C185.118 247.408 185.788 247.296 186.234 247.632C187.015 247.967 187.349 248.973 186.903 249.755C186.791 249.867 186.68 250.09 186.568 250.202C184.337 252.102 182.441 254.449 180.991 257.243C180.433 258.36 180.099 259.478 179.764 260.595L179.653 261.042L180.099 260.931C184.672 259.366 188.688 256.125 191.03 251.32C192.815 247.743 193.484 244.167 192.926 240.479C192.926 240.144 192.926 239.92 193.038 239.585C193.373 238.803 194.265 238.579 195.046 238.915C195.269 239.026 195.492 239.25 195.603 239.473C198.28 245.508 198.504 252.884 195.269 259.366C192.146 265.624 186.68 269.759 180.433 271.436C179.987 271.547 179.653 271.659 179.318 271.771C178.872 271.995 178.537 272.33 178.203 272.777L178.091 273C177.979 273.336 177.868 273.671 177.868 274.006C177.868 274.006 177.868 275.012 178.203 275.571V275.906C178.203 276.465 177.756 276.8 177.31 276.8C177.087 276.8 176.976 276.688 176.752 276.577L171.845 273C171.398 272.665 171.175 272.218 171.175 271.659C171.287 271.659 171.398 270.653 171.398 270.43Z" fill="white"/>
<path d="M166.713 233.886C166.713 234.668 165.932 235.339 165.04 235.339C164.148 235.339 163.367 234.668 163.367 233.886V210.64C163.367 209.858 164.148 209.188 165.04 209.188C165.932 209.188 166.713 209.858 166.713 210.64V233.886Z" fill="white"/>
<path d="M188.241 233.886C188.241 234.668 187.461 235.339 186.568 235.339C185.676 235.339 184.895 234.668 184.895 233.886V210.64C184.895 209.858 185.676 209.188 186.568 209.188C187.461 209.188 188.241 209.858 188.241 210.64V233.886Z" fill="white"/>
<path d="M177.422 241.373C177.422 242.156 176.641 242.826 175.749 242.826C174.856 242.826 174.076 242.156 174.076 241.373V210.64C174.076 209.858 174.856 209.188 175.749 209.188C176.641 209.188 177.422 209.858 177.422 210.64V241.373Z" fill="white"/>
<path d="M220.589 227.291C220.589 226.508 220.366 225.95 220.031 225.503C219.585 225.056 219.027 224.832 218.247 224.832V230.196C219.92 230.196 220.701 229.302 220.701 227.514V227.291H220.589ZM213.673 227.514C213.673 228.408 213.896 229.079 214.231 229.526C214.566 229.973 215.235 230.196 216.016 230.196V224.832C215.235 224.832 214.566 225.056 214.231 225.503C213.785 225.95 213.673 226.508 213.673 227.291V227.514ZM216.127 231.985C215.346 231.985 214.789 231.873 214.119 231.649C213.562 231.426 213.116 231.09 212.669 230.755C212.335 230.42 212 229.861 211.777 229.302C211.554 228.744 211.442 228.185 211.442 227.514V227.291C211.442 226.732 211.554 226.173 211.777 225.614C212 225.056 212.223 224.72 212.669 224.273C213.004 223.938 213.562 223.603 214.119 223.379C214.677 223.156 215.346 223.044 216.127 223.044V222.262H218.247V223.156C218.916 223.156 219.585 223.268 220.143 223.491C220.701 223.715 221.147 223.938 221.593 224.385C222.039 224.72 222.262 225.167 222.485 225.726C222.708 226.285 222.82 226.844 222.82 227.403V227.626C222.82 228.297 222.708 228.855 222.485 229.414C222.262 229.973 221.928 230.42 221.593 230.867C221.147 231.202 220.701 231.538 220.143 231.761C219.585 231.985 218.916 232.096 218.247 232.096V232.99H216.127V231.985Z" fill="white"/>
<path d="M228.732 230.868C229.067 230.868 229.401 230.868 229.624 230.756C229.959 230.645 230.182 230.421 230.405 230.198C230.628 229.974 230.851 229.639 230.963 229.192C231.074 228.745 231.186 228.298 231.186 227.627V227.292C231.186 226.733 231.074 226.286 230.963 225.839C230.851 225.504 230.628 225.168 230.405 224.945C230.182 224.721 229.959 224.498 229.624 224.386C229.29 224.274 229.067 224.274 228.732 224.274C228.397 224.274 228.063 224.274 227.84 224.386C227.505 224.498 227.282 224.721 227.059 224.945C226.836 225.168 226.613 225.504 226.501 225.839C226.39 226.174 226.278 226.733 226.278 227.292V227.627C226.278 228.186 226.39 228.745 226.501 229.192C226.613 229.639 226.836 229.974 227.059 230.198C227.282 230.421 227.505 230.645 227.84 230.756C228.063 230.756 228.397 230.868 228.732 230.868ZM228.732 232.656C228.174 232.656 227.505 232.544 226.947 232.433C226.39 232.209 225.943 231.986 225.497 231.539C225.051 231.092 224.716 230.645 224.493 229.974C224.27 229.303 224.159 228.633 224.159 227.739V227.404C224.159 226.51 224.27 225.839 224.493 225.168C224.716 224.61 225.051 224.051 225.497 223.716C225.943 223.38 226.39 223.045 226.947 222.822C227.505 222.598 228.063 222.486 228.732 222.486C229.29 222.486 229.959 222.598 230.517 222.822C231.074 223.045 231.521 223.269 231.967 223.716C232.413 224.051 232.748 224.61 232.971 225.168C233.194 225.727 233.305 226.51 233.305 227.404V227.739C233.305 228.633 233.194 229.415 232.971 229.974C232.748 230.645 232.413 231.092 231.967 231.539C231.521 231.986 231.074 232.209 230.517 232.433C229.847 232.544 229.29 232.656 228.732 232.656Z" fill="white"/>
<path d="M235.09 222.711H237.21V226.511H241.337V222.711H243.456V232.434H241.337V228.299H237.21V232.434H235.09V222.711Z" fill="white"/>
<path d="M251.487 230.757V224.499H248.698V225.281C248.698 226.511 248.587 227.628 248.475 228.522C248.364 229.416 248.14 230.199 247.917 230.869H251.487V230.757ZM244.794 230.757H245.91C246.021 230.422 246.133 230.087 246.244 229.528C246.356 229.081 246.356 228.634 246.467 228.075C246.579 227.516 246.579 227.069 246.579 226.511C246.579 225.952 246.579 225.393 246.579 224.946V222.711H253.495V230.757H254.498V234.334H252.602V232.546H246.579V234.334H244.683V230.757H244.794Z" fill="white"/>
<path d="M212 238.914H220.255V248.749H218.135V240.702H214.12V248.749H212V238.914Z" fill="white"/>
<path d="M225.943 243.608C226.724 243.608 227.17 243.496 227.505 243.273C227.839 243.049 227.951 242.602 227.951 242.155C227.951 241.708 227.839 241.261 227.505 241.037C227.17 240.814 226.724 240.702 225.943 240.702H224.493V243.608H225.943ZM222.485 238.914H226.278C227.616 238.914 228.62 239.249 229.178 239.808C229.847 240.367 230.182 241.149 230.182 242.155C230.182 243.161 229.847 243.943 229.178 244.502C228.509 245.061 227.505 245.396 226.278 245.396H224.605V248.749H222.485V238.914Z" fill="white"/>
<path d="M235.871 247.073C236.205 247.073 236.54 247.073 236.763 246.961C237.098 246.849 237.321 246.626 237.544 246.402C237.767 246.179 237.99 245.843 238.102 245.396C238.213 244.949 238.325 244.502 238.325 243.832V243.608C238.325 243.049 238.213 242.602 238.102 242.155C237.99 241.82 237.767 241.485 237.544 241.261C237.321 241.038 237.098 240.814 236.763 240.703C236.428 240.591 236.205 240.591 235.871 240.591C235.536 240.591 235.201 240.591 234.978 240.703C234.644 240.814 234.421 241.038 234.198 241.261C233.974 241.485 233.751 241.82 233.64 242.155C233.528 242.491 233.417 243.049 233.417 243.608V243.832C233.417 244.391 233.528 244.949 233.64 245.396C233.751 245.843 233.974 246.179 234.198 246.402C234.421 246.626 234.644 246.849 234.978 246.961C235.201 247.073 235.536 247.073 235.871 247.073ZM235.871 248.861C235.313 248.861 234.644 248.749 234.086 248.526C233.528 248.302 233.082 248.079 232.636 247.632C232.19 247.184 231.855 246.737 231.632 246.067C231.409 245.396 231.297 244.726 231.297 243.832V243.608C231.297 242.714 231.409 242.044 231.632 241.373C231.855 240.814 232.19 240.256 232.636 239.92C233.082 239.585 233.528 239.25 234.086 239.026C234.644 238.803 235.201 238.803 235.871 238.803C236.428 238.803 237.098 238.914 237.655 239.026C238.213 239.25 238.659 239.473 239.105 239.92C239.552 240.256 239.886 240.814 240.109 241.373C240.332 241.932 240.444 242.714 240.444 243.608V243.832C240.444 244.726 240.332 245.508 240.109 246.067C239.886 246.737 239.552 247.184 239.105 247.632C238.659 248.079 238.213 248.302 237.655 248.526C237.098 248.749 236.428 248.861 235.871 248.861Z" fill="white"/>
<path d="M247.694 246.961V240.702H244.905V241.484C244.905 242.714 244.794 243.831 244.682 244.725C244.571 245.619 244.348 246.402 244.125 247.072H247.694V246.961ZM241.113 246.961H242.228C242.34 246.625 242.452 246.29 242.563 245.731C242.675 245.284 242.786 244.837 242.786 244.278C242.898 243.72 242.898 243.273 242.898 242.714C242.898 242.155 242.898 241.596 242.898 241.149V238.914H249.813V246.961H250.817V250.537H248.921V248.749H242.898V250.537H241.001V246.961H241.113Z" fill="white"/>
<path d="M256.395 247.073C256.73 247.073 257.064 247.073 257.287 246.961C257.622 246.849 257.845 246.626 258.068 246.402C258.291 246.179 258.514 245.843 258.626 245.396C258.737 244.949 258.849 244.502 258.849 243.832V243.608C258.849 243.049 258.737 242.602 258.626 242.155C258.514 241.82 258.291 241.485 258.068 241.261C257.845 241.038 257.622 240.814 257.287 240.703C256.953 240.591 256.73 240.591 256.395 240.591C256.06 240.591 255.726 240.591 255.503 240.703C255.168 240.814 254.945 241.038 254.722 241.261C254.499 241.485 254.276 241.82 254.164 242.155C254.053 242.491 253.941 243.049 253.941 243.608V243.832C253.941 244.391 254.053 244.949 254.164 245.396C254.276 245.843 254.499 246.179 254.722 246.402C254.945 246.626 255.168 246.849 255.503 246.961C255.726 247.073 256.06 247.073 256.395 247.073ZM256.395 248.861C255.837 248.861 255.168 248.749 254.61 248.526C254.053 248.302 253.606 248.079 253.16 247.632C252.714 247.184 252.379 246.737 252.156 246.067C251.933 245.396 251.822 244.726 251.822 243.832V243.608C251.822 242.714 251.933 242.044 252.156 241.373C252.379 240.814 252.714 240.256 253.16 239.92C253.606 239.585 254.053 239.25 254.61 239.026C255.168 238.803 255.726 238.803 256.395 238.803C257.064 238.803 257.622 238.914 258.18 239.026C258.737 239.25 259.184 239.473 259.63 239.92C260.076 240.256 260.411 240.814 260.634 241.373C260.857 241.932 260.968 242.714 260.968 243.608V243.832C260.968 244.726 260.857 245.508 260.634 246.067C260.411 246.737 260.076 247.184 259.63 247.632C259.184 248.079 258.737 248.302 258.18 248.526C257.622 248.749 256.953 248.861 256.395 248.861Z" fill="white"/>
<path d="M266.768 247.072C267.437 247.072 267.883 246.961 268.107 246.737C268.33 246.514 268.441 246.178 268.441 245.731C268.441 245.284 268.33 244.949 268.107 244.725C267.883 244.502 267.437 244.39 266.768 244.39H264.872V247.072H266.768ZM266.545 242.937C267.103 242.937 267.549 242.826 267.772 242.602C267.995 242.379 268.107 242.043 268.107 241.708C268.107 241.373 267.995 241.037 267.772 240.814C267.549 240.59 267.103 240.479 266.545 240.479H264.872V242.937H266.545ZM262.752 238.914H266.88C267.995 238.914 268.776 239.138 269.334 239.585C269.891 240.032 270.114 240.702 270.114 241.484C270.114 242.043 270.003 242.379 269.78 242.826C269.557 243.161 269.222 243.496 268.776 243.608C269.334 243.72 269.78 244.055 270.114 244.39C270.449 244.837 270.561 245.284 270.561 245.955C270.561 246.402 270.449 246.737 270.337 247.072C270.226 247.408 270.003 247.743 269.78 247.966C269.557 248.19 269.11 248.413 268.664 248.525C268.218 248.637 267.66 248.749 267.103 248.749H262.752V238.914Z" fill="white"/>
<path d="M276.361 247.073C276.696 247.073 277.031 247.073 277.254 246.961C277.588 246.849 277.811 246.626 278.035 246.402C278.258 246.179 278.481 245.843 278.592 245.396C278.704 244.949 278.815 244.502 278.815 243.832V243.608C278.815 243.049 278.704 242.602 278.592 242.155C278.481 241.82 278.258 241.485 278.035 241.261C277.811 241.038 277.588 240.814 277.254 240.703C276.919 240.591 276.696 240.591 276.361 240.591C276.027 240.591 275.692 240.591 275.469 240.703C275.134 240.814 274.911 241.038 274.688 241.261C274.465 241.485 274.242 241.82 274.131 242.155C274.019 242.491 273.907 243.049 273.907 243.608V243.832C273.907 244.391 274.019 244.949 274.131 245.396C274.242 245.843 274.465 246.179 274.688 246.402C274.911 246.626 275.134 246.849 275.469 246.961C275.692 247.073 276.027 247.073 276.361 247.073ZM276.361 248.861C275.804 248.861 275.134 248.749 274.577 248.526C274.019 248.302 273.573 248.079 273.127 247.632C272.68 247.184 272.346 246.737 272.123 246.067C271.9 245.396 271.788 244.726 271.788 243.832V243.608C271.788 242.714 271.9 242.044 272.123 241.373C272.346 240.814 272.68 240.256 273.127 239.92C273.573 239.585 274.019 239.25 274.577 239.026C275.134 238.803 275.692 238.803 276.361 238.803C277.031 238.803 277.588 238.914 278.146 239.026C278.704 239.25 279.15 239.473 279.596 239.92C280.042 240.256 280.377 240.814 280.6 241.373C280.823 241.932 280.935 242.714 280.935 243.608V243.832C280.935 244.726 280.823 245.508 280.6 246.067C280.377 246.737 280.042 247.184 279.596 247.632C279.15 248.079 278.704 248.302 278.146 248.526C277.588 248.749 277.031 248.861 276.361 248.861Z" fill="white"/>
<path d="M282.607 248.862C282.495 248.862 282.495 248.862 282.384 248.862C282.272 248.862 282.161 248.862 282.049 248.862V246.962H282.272C282.496 246.962 282.719 246.962 282.83 246.85C283.053 246.739 283.165 246.515 283.276 246.18C283.388 245.845 283.499 245.286 283.499 244.615C283.499 243.945 283.611 242.939 283.611 241.821V239.027H290.75V248.75H288.63V240.704H285.507V242.045C285.507 243.498 285.396 244.727 285.284 245.621C285.173 246.515 284.949 247.186 284.726 247.744C284.503 248.191 284.169 248.527 283.834 248.75C283.499 248.75 283.053 248.862 282.607 248.862Z" fill="white"/>
<path d="M296.439 246.961C297.22 246.961 297.666 246.849 298.001 246.625C298.335 246.402 298.447 246.066 298.447 245.619C298.447 245.172 298.335 244.837 298.001 244.614C297.666 244.39 297.22 244.278 296.439 244.278H294.989V247.072H296.439V246.961ZM292.87 238.914H294.989V242.379H296.662C297.331 242.379 297.889 242.49 298.335 242.602C298.781 242.714 299.228 242.937 299.562 243.273C299.897 243.496 300.12 243.831 300.232 244.278C300.343 244.614 300.455 245.061 300.455 245.619C300.455 246.066 300.343 246.514 300.232 246.961C300.12 247.296 299.785 247.631 299.562 247.966C299.228 248.19 298.781 248.413 298.335 248.637C297.889 248.749 297.22 248.86 296.662 248.86H292.87V238.914Z" fill="white"/>
<path d="M306.032 248.861C305.363 248.861 304.805 248.749 304.247 248.526C303.689 248.302 303.243 248.079 302.909 247.632C302.574 247.184 302.239 246.737 302.016 246.067C301.793 245.396 301.682 244.726 301.682 243.832V243.608C301.682 242.714 301.793 242.044 302.016 241.373C302.239 240.814 302.574 240.256 302.909 239.92C303.355 239.585 303.801 239.25 304.247 239.026C304.805 238.803 305.363 238.803 305.92 238.803C306.478 238.803 307.036 238.914 307.482 239.026C307.928 239.138 308.374 239.362 308.709 239.585C309.044 239.809 309.378 240.256 309.601 240.591C309.824 241.038 309.936 241.485 310.047 242.155H307.928C307.817 241.597 307.593 241.15 307.259 240.926C306.924 240.703 306.478 240.591 306.032 240.591C305.697 240.591 305.474 240.591 305.251 240.703C305.028 240.814 304.805 240.926 304.582 241.261C304.359 241.485 304.247 241.82 304.136 242.155C304.024 242.491 303.913 243.049 303.913 243.608V243.832C303.913 244.391 304.024 244.949 304.136 245.396C304.247 245.843 304.47 246.179 304.693 246.402C304.916 246.626 305.14 246.849 305.363 246.961C305.586 247.073 305.92 247.073 306.143 247.073C306.701 247.073 307.147 246.961 307.482 246.626C307.817 246.29 308.04 245.955 308.151 245.396H310.271C310.271 245.955 310.047 246.514 309.824 246.961C309.601 247.408 309.267 247.743 308.932 247.967C308.597 248.19 308.151 248.414 307.705 248.526C307.147 248.861 306.59 248.861 306.032 248.861Z" fill="white"/>
<path d="M313.84 240.702H310.717V238.914H319.083V240.702H315.959V248.749H313.84V240.702Z" fill="white"/>
<path d="M324.436 247.072C325.106 247.072 325.552 246.961 325.775 246.737C325.998 246.514 326.11 246.178 326.11 245.731C326.11 245.284 325.998 244.949 325.775 244.725C325.552 244.502 325.106 244.39 324.436 244.39H322.54V247.072H324.436ZM324.213 242.937C324.771 242.937 325.217 242.826 325.44 242.602C325.663 242.379 325.775 242.043 325.775 241.708C325.775 241.373 325.663 241.037 325.44 240.814C325.217 240.59 324.771 240.479 324.213 240.479H322.54V242.937H324.213ZM320.421 238.914H324.548C325.663 238.914 326.444 239.138 327.002 239.585C327.56 240.032 327.783 240.702 327.783 241.484C327.783 242.043 327.671 242.379 327.448 242.826C327.225 243.161 326.89 243.496 326.444 243.608C327.002 243.72 327.448 244.055 327.783 244.39C328.117 244.837 328.229 245.284 328.229 245.955C328.229 246.402 328.117 246.737 328.006 247.072C327.894 247.408 327.671 247.743 327.448 247.966C327.225 248.19 326.779 248.413 326.333 248.525C325.887 248.637 325.329 248.749 324.771 248.749H320.421V238.914Z" fill="white"/>
<path d="M329.903 238.914H332.022V245.396L336.261 238.914H338.269V248.749H336.149V242.267L331.911 248.749H329.903V238.914Z" fill="white"/>
<path d="M342.395 242.044C342.395 242.267 342.395 242.491 342.507 242.602C342.618 242.826 342.73 242.938 342.841 243.049C342.953 243.161 343.176 243.273 343.511 243.273C343.734 243.385 344.068 243.385 344.514 243.385H345.964V240.591H344.514C344.18 240.591 343.845 240.591 343.511 240.703C343.287 240.814 343.064 240.814 342.841 240.926C342.73 241.038 342.618 241.15 342.507 241.373C342.395 241.597 342.395 241.82 342.395 242.044ZM342.395 244.949C341.726 244.726 341.168 244.391 340.833 243.832C340.499 243.385 340.276 242.714 340.276 242.044C340.276 241.597 340.387 241.15 340.499 240.703C340.61 240.367 340.833 240.032 341.168 239.697C341.503 239.473 341.837 239.25 342.284 239.026C342.73 238.914 343.287 238.803 343.845 238.803H347.861V248.526H345.741V244.949H344.18L342.06 248.526H339.83L342.395 244.949Z" fill="white"/>
<path d="M226.505 280.377C229.852 280.377 231.413 278.142 231.413 275.012C231.413 271.883 229.74 269.76 226.617 269.76H221.821V280.377H226.505ZM212.339 261.602H228.513C236.098 261.602 241.229 267.189 241.229 275.012C241.229 282.835 236.098 288.535 228.513 288.535H221.821V300.605H212.339V261.602Z" fill="white"/>
<path d="M249.26 291.217C250.264 292.111 251.714 293.229 253.61 293.229C255.172 293.229 256.176 292.558 256.733 291.217L241.675 261.602H252.16L258.629 275.571C259.968 278.365 260.749 280.824 260.749 280.824H260.86C260.86 280.824 261.418 278.365 262.422 275.683L267.218 261.602H277.257L265.768 290.882C263.984 295.464 260.972 301.275 254.168 301.275C250.71 301.275 248.033 300.269 245.244 298.37L249.26 291.217Z" fill="white"/>
<path d="M299.009 261.043C304.251 261.043 309.828 262.831 313.621 266.519L309.159 273.783C306.705 271.548 302.913 269.76 299.455 269.76C291.647 269.76 288.412 275.236 288.412 280.936C288.412 286.747 291.87 292.67 299.455 292.67C303.359 292.67 307.151 290.547 309.828 287.865L314.736 294.793C311.279 298.37 306.148 301.275 299.009 301.275C286.516 301.275 278.596 292.67 278.596 281.047C278.596 269.76 286.962 261.043 299.009 261.043Z" fill="white"/>
<path d="M333.81 292.446C336.934 292.446 338.607 290.323 338.607 287.194C338.607 284.065 336.934 281.83 333.699 281.83H329.014V292.446H333.81ZM319.533 261.602H329.014V273.671H335.707C343.292 273.671 348.423 279.371 348.423 287.194C348.423 295.017 343.292 300.605 335.707 300.605H319.533V261.602Z" fill="white"/>
</g>
<path opacity="0.2" d="M303.521 169.606C303.521 169.606 304.448 102.225 274.785 97.1484L272.931 170.529C272.931 170.529 284.054 172.375 303.521 169.606Z" fill="black"/>
<defs>
<clipPath id="clip0_922_4015">
<rect width="215.522" height="123" fill="white" transform="translate(155.478 192)"/>
</clipPath>
</defs>
</svg>
